<?xml version="1.0" standalone="no"?>
<svg xmlns:xlink="http://www.w3.org/1999/xlink" id="wave" style="transform:rotate(0deg); transition: 0.3s" viewBox="0 0 1440 490" version="1.1" xmlns="http://www.w3.org/2000/svg"><defs><linearGradient id="sw-gradient-0" x1="0" x2="0" y1="1" y2="0"><stop stop-color="rgba(221.168, 25.676, 25.676, 1)" offset="0%"/><stop stop-color="rgba(31.028, 27.003, 107.329, 1)" offset="100%"/></linearGradient></defs><path style="transform:translate(0, 0px); opacity:1" fill="url(#sw-gradient-0)" d="M0,245L24,204.2C48,163,96,82,144,65.3C192,49,240,98,288,114.3C336,131,384,114,432,155.2C480,196,528,294,576,334.8C624,376,672,359,720,367.5C768,376,816,408,864,375.7C912,343,960,245,1008,236.8C1056,229,1104,310,1152,310.3C1200,310,1248,229,1296,236.8C1344,245,1392,343,1440,351.2C1488,359,1536,278,1584,245C1632,212,1680,229,1728,196C1776,163,1824,82,1872,40.8C1920,0,1968,0,2016,49C2064,98,2112,196,2160,220.5C2208,245,2256,196,2304,163.3C2352,131,2400,114,2448,114.3C2496,114,2544,131,2592,155.2C2640,180,2688,212,2736,196C2784,180,2832,114,2880,114.3C2928,114,2976,180,3024,228.7C3072,278,3120,310,3168,334.8C3216,359,3264,376,3312,359.3C3360,343,3408,294,3432,269.5L3456,245L3456,490L3432,490C3408,490,3360,490,3312,490C3264,490,3216,490,3168,490C3120,490,3072,490,3024,490C2976,490,2928,490,2880,490C2832,490,2784,490,2736,490C2688,490,2640,490,2592,490C2544,490,2496,490,2448,490C2400,490,2352,490,2304,490C2256,490,2208,490,2160,490C2112,490,2064,490,2016,490C1968,490,1920,490,1872,490C1824,490,1776,490,1728,490C1680,490,1632,490,1584,490C1536,490,1488,490,1440,490C1392,490,1344,490,1296,490C1248,490,1200,490,1152,490C1104,490,1056,490,1008,490C960,490,912,490,864,490C816,490,768,490,720,490C672,490,624,490,576,490C528,490,480,490,432,490C384,490,336,490,288,490C240,490,192,490,144,490C96,490,48,490,24,490L0,490Z"/></svg>